<svg width="26" height="24" viewBox="0 0 26 24" fill="none" xmlns="http://www.w3.org/2000/svg">
<path d="M14.2044 6.293C14.0122 6.48053 13.9043 6.73484 13.9043 7C13.9043 7.26516 14.0122 7.51947 14.2044 7.707L17.5784 11L6.90582 11.007C6.63399 11.007 6.3733 11.1124 6.18109 11.2999C5.98887 11.4874 5.88089 11.7418 5.88089 12.007C5.88089 12.2722 5.98887 12.5266 6.18109 12.7141C6.3733 12.9016 6.63399 13.007 6.90582 13.007L17.5794 13L14.2044 16.293C14.1065 16.3852 14.0284 16.4956 13.9747 16.6176C13.9209 16.7396 13.8927 16.8708 13.8915 17.0036C13.8903 17.1364 13.9162 17.2681 13.9678 17.391C14.0193 17.5138 14.0954 17.6255 14.1916 17.7194C14.2879 17.8133 14.4023 17.8875 14.5283 17.9378C14.6542 17.9881 14.7892 18.0134 14.9253 18.0123C15.0614 18.0111 15.1959 17.9835 15.3209 17.9311C15.446 17.8787 15.5591 17.8025 15.6536 17.707L19.329 14.122C19.6146 13.8434 19.8411 13.5127 19.9957 13.1487C20.1502 12.7847 20.2298 12.3945 20.2298 12.0005C20.2298 11.6065 20.1502 11.2163 19.9957 10.8523C19.8411 10.4883 19.6146 10.1576 19.329 9.879L15.6536 6.293C15.4614 6.10553 15.2008 6.00021 14.929 6.00021C14.6572 6.00021 14.3966 6.10553 14.2044 6.293V6.293Z" fill="white"/>
</svg>
