<svg width="22" height="22" viewBox="0 0 22 22" fill="none" xmlns="http://www.w3.org/2000/svg">
<path fillRule="evenodd" clipRule="evenodd" d="M11 1.75C5.89137 1.75 1.75 5.89137 1.75 11C1.75 16.1086 5.89137 20.25 11 20.25C16.1086 20.25 20.25 16.1086 20.25 11C20.25 5.89137 16.1086 1.75 11 1.75ZM0.25 11C0.25 5.06294 5.06294 0.25 11 0.25C16.9371 0.25 21.75 5.06294 21.75 11C21.75 16.9371 16.9371 21.75 11 21.75C5.06294 21.75 0.25 16.9371 0.25 11Z" fill="#363853"/>
<path fillRule="evenodd" clipRule="evenodd" d="M6.46967 6.46967C6.76256 6.17678 7.23744 6.17678 7.53033 6.46967L15.5303 14.4697C15.8232 14.7626 15.8232 15.2374 15.5303 15.5303C15.2374 15.8232 14.7626 15.8232 14.4697 15.5303L6.46967 7.53033C6.17678 7.23744 6.17678 6.76256 6.46967 6.46967Z" fill="#363853"/>
<path fillRule="evenodd" clipRule="evenodd" d="M6.46967 15.5303C6.17678 15.2374 6.17678 14.7626 6.46967 14.4697L14.4697 6.46967C14.7626 6.17678 15.2374 6.17678 15.5303 6.46967C15.8232 6.76256 15.8232 7.23744 15.5303 7.53033L7.53033 15.5303C7.23744 15.8232 6.76256 15.8232 6.46967 15.5303Z" fill="#363853"/>
</svg>
