<svg width="35" height="34" viewBox="0 0 35 34" fill="none" xmlns="http://www.w3.org/2000/svg">
<g clip-path="url(#clip0_17012_14)">
<path d="M26.6875 29.1875H23.625V20.3987C23.8956 20.343 24.1507 20.2292 24.3729 20.065C24.595 19.9008 24.7786 19.6902 24.9111 19.4478C25.0436 19.2055 25.1218 18.9371 25.1401 18.6615C25.1585 18.3859 25.1166 18.1097 25.0173 17.8519L23.625 14.231V7.3125C23.625 7.25504 23.6137 7.19814 23.5917 7.14506C23.5697 7.09197 23.5375 7.04374 23.4969 7.00311C23.4563 6.96248 23.408 6.93025 23.3549 6.90827C23.3019 6.88629 23.245 6.87498 23.1875 6.875H4.8125C4.75504 6.87498 4.69815 6.88629 4.64506 6.90827C4.59197 6.93025 4.54374 6.96248 4.50311 7.00311C4.46248 7.04374 4.43025 7.09197 4.40827 7.14506C4.38629 7.19814 4.37498 7.25504 4.375 7.3125V14.231L2.98266 17.8519C2.88344 18.1097 2.84155 18.3859 2.85989 18.6615C2.87823 18.9371 2.95636 19.2055 3.08886 19.4478C3.22136 19.6902 3.40504 19.9008 3.62715 20.065C3.84925 20.2292 4.10445 20.343 4.375 20.3987V29.1875H1.3125C1.25504 29.1875 1.19814 29.1988 1.14506 29.2208C1.09197 29.2428 1.04374 29.275 1.00311 29.3156C0.962479 29.3562 0.930253 29.4045 0.908272 29.4576C0.886291 29.5106 0.874985 29.5675 0.875 29.625V32.6875C0.874985 32.745 0.886291 32.8019 0.908272 32.8549C0.930253 32.908 0.962479 32.9563 1.00311 32.9969C1.04374 33.0375 1.09197 33.0697 1.14506 33.0917C1.19814 33.1137 1.25504 33.125 1.3125 33.125H26.6875C26.745 33.125 26.8019 33.1137 26.8549 33.0917C26.908 33.0697 26.9563 33.0375 26.9969 32.9969C27.0375 32.9563 27.0697 32.908 27.0917 32.8549C27.1137 32.8019 27.125 32.745 27.125 32.6875V29.625C27.125 29.5675 27.1137 29.5106 27.0917 29.4576C27.0697 29.4045 27.0375 29.3562 26.9969 29.3156C26.9563 29.275 26.908 29.2428 26.8549 29.2208C26.8019 29.1988 26.745 29.1875 26.6875 29.1875ZM21.875 29.1875V19.8562C22.1144 20.1043 22.4169 20.2826 22.75 20.3719V29.1875H21.875ZM18.375 29.625V32.25H16.625V29.1875H17.5C17.616 29.1875 17.7273 29.1414 17.8094 29.0594C17.8914 28.9773 17.9375 28.866 17.9375 28.75V27.4375C17.9375 27.3215 17.8914 27.2102 17.8094 27.1281C17.7273 27.0461 17.616 27 17.5 27H14.875C14.759 27 14.6477 27.0461 14.5656 27.1281C14.4836 27.2102 14.4375 27.3215 14.4375 27.4375V28.75C14.4375 28.866 14.4836 28.9773 14.5656 29.0594C14.6477 29.1414 14.759 29.1875 14.875 29.1875H15.75V32.25H14V29.625C14 29.5675 13.9887 29.5106 13.9667 29.4576C13.9447 29.4045 13.9125 29.3562 13.8719 29.3156C13.8313 29.275 13.783 29.2428 13.7299 29.2208C13.6769 29.1988 13.62 29.1875 13.5625 29.1875H12.6875V27.875C12.6875 27.8175 12.6762 27.7606 12.6542 27.7076C12.6322 27.6545 12.6 27.6062 12.5594 27.5656C12.5188 27.525 12.4705 27.4928 12.4174 27.4708C12.3644 27.4488 12.3075 27.4375 12.25 27.4375H11.375V20.3976C11.7991 20.3098 12.1805 20.0798 12.4562 19.7457C12.483 19.7791 12.5114 19.8113 12.5415 19.843C12.7186 20.0317 12.9326 20.1818 13.1703 20.2841C13.408 20.3863 13.6642 20.4386 13.9229 20.4375H14.0771C14.3358 20.4386 14.592 20.3863 14.8297 20.2841C15.0674 20.1818 15.2814 20.0317 15.4585 19.843C15.4886 19.8113 15.517 19.7791 15.5438 19.7457C15.607 19.8218 15.6759 19.893 15.75 19.9586V21.3125C15.17 21.3131 14.614 21.5437 14.2038 21.9538C13.7937 22.364 13.5631 22.92 13.5625 23.5C13.5625 23.5575 13.5738 23.6144 13.5958 23.6674C13.6178 23.7205 13.65 23.7688 13.6906 23.8094C13.7312 23.85 13.7795 23.8822 13.8326 23.9042C13.8856 23.9262 13.9425 23.9375 14 23.9375H18.375C18.4325 23.9375 18.4894 23.9262 18.5424 23.9042C18.5955 23.8822 18.6438 23.85 18.6844 23.8094C18.725 23.7688 18.7572 23.7205 18.7792 23.6674C18.8012 23.6144 18.8125 23.5575 18.8125 23.5C18.8119 22.92 18.5813 22.364 18.1712 21.9538C17.761 21.5437 17.205 21.3131 16.625 21.3125V20.3976C16.7522 20.4242 16.8817 20.4376 17.0116 20.4375H17.1484C17.4245 20.4377 17.6973 20.3777 17.9479 20.2618C18.1984 20.1458 18.4207 19.9766 18.5992 19.7659C18.6107 19.7528 18.6216 19.7391 18.632 19.7255C18.8102 19.9484 19.0364 20.1282 19.2938 20.2515C19.5512 20.3748 19.8331 20.4384 20.1184 20.4375H20.2032C20.4782 20.438 20.75 20.379 21 20.2647V27.4375H20.125C20.0675 27.4375 20.0106 27.4488 19.9576 27.4708C19.9045 27.4928 19.8562 27.525 19.8156 27.5656C19.775 27.6062 19.7428 27.6545 19.7208 27.7076C19.6988 27.7606 19.6875 27.8175 19.6875 27.875V29.1875H18.8125C18.755 29.1875 18.6981 29.1988 18.6451 29.2208C18.592 29.2428 18.5437 29.275 18.5031 29.3156C18.4625 29.3562 18.4303 29.4045 18.4083 29.4576C18.3863 29.5106 18.375 29.5675 18.375 29.625ZM15.3125 28.3125V27.875H17.0625V28.3125H15.3125ZM6.80531 18.2648L7.77109 14.75H9.5468L8.89546 18.7023C8.85648 18.9428 8.73296 19.1616 8.54712 19.3193C8.36127 19.477 8.12528 19.5632 7.88156 19.5625H7.7968C7.63883 19.5624 7.48301 19.526 7.34142 19.4559C7.19983 19.3859 7.07629 19.2842 6.98038 19.1586C6.88448 19.0331 6.8188 18.8872 6.78844 18.7321C6.75807 18.5771 6.76385 18.4172 6.80531 18.2648ZM7 20.2647C7.25004 20.379 7.52185 20.438 7.7968 20.4375H7.88156C8.16694 20.4384 8.44883 20.3748 8.70621 20.2515C8.96358 20.1282 9.18979 19.9484 9.36797 19.7255C9.37836 19.7391 9.38929 19.7528 9.40078 19.7659C9.6829 20.0988 10.0711 20.3244 10.5 20.4047V22.625H7V20.2647ZM10.8516 19.5625C10.7025 19.5626 10.5552 19.5302 10.4198 19.4675C10.2845 19.4049 10.1644 19.3136 10.0679 19.1999C9.97144 19.0862 9.90087 18.9528 9.86112 18.8091C9.82137 18.6654 9.81339 18.5147 9.83773 18.3676L10.4338 14.75H12.2254L12.0143 18.5913C11.9999 18.8536 11.8855 19.1005 11.6947 19.2811C11.5039 19.4618 11.2511 19.5625 10.9884 19.5625H10.8516ZM14.823 19.2415C14.7274 19.3433 14.6118 19.4243 14.4834 19.4795C14.3551 19.5348 14.2168 19.563 14.0771 19.5625H13.9229C13.7835 19.5625 13.6455 19.5341 13.5174 19.479C13.3893 19.424 13.2737 19.3434 13.1777 19.2423C13.0817 19.1411 13.0073 19.0215 12.9591 18.8907C12.9108 18.7599 12.8897 18.6206 12.897 18.4813L13.1015 14.75H14.8985L15.103 18.4786V18.4813C15.111 18.6205 15.0903 18.7598 15.0421 18.8905C14.994 19.0213 14.9194 19.1408 14.823 19.2415ZM15.9857 18.5912L15.7746 14.75H17.5662L18.1623 18.3676C18.1866 18.5147 18.1786 18.6654 18.1389 18.8091C18.0991 18.9528 18.0286 19.0862 17.9321 19.1999C17.8356 19.3136 17.7155 19.4049 17.5802 19.4675C17.4448 19.5302 17.2975 19.5626 17.1484 19.5625H17.0116C16.7489 19.5625 16.4961 19.4618 16.3053 19.2811C16.1145 19.1005 16.0001 18.8536 15.9857 18.5913V18.5912ZM16.625 22.1875C16.8964 22.1878 17.161 22.2721 17.3825 22.4288C17.6041 22.5854 17.7718 22.8068 17.8626 23.0625H14.5124C14.6032 22.8068 14.7709 22.5854 14.9925 22.4288C15.214 22.2721 15.4786 22.1878 15.75 22.1875H16.625ZM21.0202 19.1578C20.9248 19.284 20.8013 19.3863 20.6595 19.4566C20.5177 19.5268 20.3614 19.5631 20.2032 19.5625H20.1184C19.8747 19.5632 19.6387 19.477 19.4529 19.3193C19.267 19.1616 19.1435 18.9428 19.1045 18.7023L18.4532 14.75H20.2289L21.1941 18.2626C21.1941 18.2631 21.1947 18.2642 21.1947 18.2648C21.2366 18.417 21.2427 18.5768 21.2125 18.7318C21.1822 18.8868 21.1164 19.0326 21.0202 19.1578ZM20.5625 28.3125H21V29.1875H20.5625V28.3125ZM24.2009 18.1658C24.2608 18.3215 24.2819 18.4894 24.2624 18.655C24.2428 18.8207 24.1833 18.9791 24.0889 19.1166C23.9944 19.2541 23.868 19.3666 23.7204 19.4442C23.5727 19.5219 23.4084 19.5625 23.2416 19.5625C23.0167 19.562 22.7981 19.4879 22.6191 19.3515C22.4402 19.2152 22.3108 19.024 22.2507 18.8073L21.1362 14.75H22.8873L24.2009 18.1658ZM5.25 7.75H22.75V13.875H5.25V7.75ZM3.91125 19.1168C3.81565 18.9798 3.75539 18.8213 3.73583 18.6554C3.71627 18.4894 3.73802 18.3213 3.79914 18.1658L5.11273 14.75H6.86383L5.7493 18.8073C5.68917 19.024 5.55977 19.2152 5.38085 19.3515C5.20193 19.4879 4.98332 19.562 4.75836 19.5625C4.59138 19.5637 4.42668 19.5237 4.27889 19.4459C4.13111 19.3682 4.00482 19.2551 3.91125 19.1168ZM5.25 20.3719C5.58308 20.2826 5.88558 20.1043 6.125 19.8562V29.1875H5.25V20.3719ZM8.75 32.25H1.75V30.0625H8.75V32.25ZM9.1875 29.1875H7V23.5H10.5V32.25H9.625V29.625C9.62502 29.5675 9.61371 29.5106 9.59173 29.4576C9.56975 29.4045 9.53752 29.3562 9.49689 29.3156C9.45626 29.275 9.40803 29.2428 9.35494 29.2208C9.30186 29.1988 9.24496 29.1875 9.1875 29.1875ZM11.375 28.3125H11.8125V29.625C11.8125 29.6825 11.8238 29.7394 11.8458 29.7924C11.8678 29.8455 11.9 29.8938 11.9406 29.9344C11.9812 29.975 12.0295 30.0072 12.0826 30.0292C12.1356 30.0512 12.1925 30.0625 12.25 30.0625H13.125V32.25H11.375V28.3125ZM26.25 32.25H19.25V30.0625H26.25V32.25Z" fill="url(#paint0_linear_17012_14)"/>
<path d="M17.0625 11.25H16.5878C16.4961 10.7131 16.24 10.2178 15.8548 9.83265C15.4697 9.44748 14.9744 9.19136 14.4375 9.09966V8.625C14.4375 8.50897 14.3914 8.39769 14.3094 8.31564C14.2273 8.23359 14.116 8.1875 14 8.1875C13.884 8.1875 13.7727 8.23359 13.6906 8.31564C13.6086 8.39769 13.5625 8.50897 13.5625 8.625V9.09966C13.0256 9.19136 12.5303 9.44748 12.1452 9.83265C11.76 10.2178 11.5039 10.7131 11.4122 11.25H10.9375C10.8215 11.25 10.7102 11.2961 10.6281 11.3781C10.5461 11.4602 10.5 11.5715 10.5 11.6875C10.5005 12.1515 10.6851 12.5963 11.0131 12.9244C11.3412 13.2524 11.786 13.437 12.25 13.4375H15.75C16.214 13.437 16.6588 13.2524 16.9869 12.9244C17.3149 12.5963 17.4995 12.1515 17.5 11.6875C17.5 11.5715 17.4539 11.4602 17.3719 11.3781C17.2898 11.2961 17.1785 11.25 17.0625 11.25ZM14 9.9375C14.3879 9.938 14.7646 10.0671 15.0713 10.3046C15.3779 10.5421 15.5971 10.8746 15.6946 11.25H12.3054C12.4029 10.8746 12.6221 10.5421 12.9287 10.3046C13.2354 10.0671 13.6121 9.938 14 9.9375ZM15.75 12.5625H12.25C12.0965 12.5624 11.9456 12.522 11.8127 12.4452C11.6797 12.3684 11.5693 12.258 11.4924 12.125H16.5076C16.4307 12.258 16.3203 12.3684 16.1873 12.4452C16.0544 12.522 15.9035 12.5624 15.75 12.5625Z" fill="url(#paint1_linear_17012_14)"/>
<path d="M10.7427 10.3015C10.8026 10.2616 10.8517 10.2074 10.8857 10.1439C10.9197 10.0804 10.9375 10.0095 10.9375 9.9375V8.625H10.0625V9.68767C9.92368 9.75851 9.77677 9.81225 9.625 9.84768V8.625H8.75V9.84769C8.59823 9.81224 8.45132 9.75851 8.3125 9.68767V8.625H7.4375V9.9375C7.4375 10.0095 7.45528 10.0804 7.48927 10.1439C7.52325 10.2074 7.57239 10.2616 7.63232 10.3015C7.96895 10.5263 8.35024 10.6755 8.75 10.739V13.4375H9.625V10.739C10.0248 10.6755 10.4061 10.5263 10.7427 10.3015Z" fill="url(#paint2_linear_17012_14)"/>
<path d="M18.8124 8.1875C18.3864 8.18753 17.9751 8.34289 17.6555 8.62448C17.3359 8.90607 17.13 9.29454 17.0763 9.7171C17.0227 10.1397 17.1249 10.5673 17.364 10.9198C17.603 11.2724 17.9625 11.5256 18.3749 11.6321V13.4375H19.2499V11.6321C19.6623 11.5256 20.0217 11.2724 20.2608 10.9198C20.4998 10.5673 20.6021 10.1397 20.5484 9.7171C20.4948 9.29454 20.2888 8.90607 19.9692 8.62448C19.6497 8.34289 19.2383 8.18753 18.8124 8.1875ZM18.8124 10.8125C18.6393 10.8125 18.4702 10.7612 18.3263 10.665C18.1824 10.5689 18.0702 10.4322 18.004 10.2723C17.9378 10.1125 17.9204 9.93653 17.9542 9.7668C17.988 9.59706 18.0713 9.44115 18.1937 9.31878C18.316 9.19641 18.4719 9.11307 18.6417 9.07931C18.8114 9.04555 18.9873 9.06288 19.1472 9.12911C19.3071 9.19533 19.4438 9.30748 19.5399 9.45138C19.6361 9.59527 19.6874 9.76444 19.6874 9.9375C19.6871 10.1695 19.5948 10.3919 19.4308 10.5559C19.2668 10.72 19.0444 10.8122 18.8124 10.8125Z" fill="url(#paint3_linear_17012_14)"/>
</g>
<ellipse opacity="0.15" cx="22.0968" cy="12.5" rx="12.0968" ry="12.5" fill="url(#paint4_linear_17012_14)"/>
<defs>
<linearGradient id="paint0_linear_17012_14" x1="0.875" y1="19.125" x2="26.4959" y2="19.2393" gradientUnits="userSpaceOnUse">
<stop stop-color="#FF5050"/>
<stop offset="1" stop-color="#FF7070" stop-opacity="0.84"/>
</linearGradient>
<linearGradient id="paint1_linear_17012_14" x1="10.5" y1="10.6375" x2="17.3321" y2="10.6781" gradientUnits="userSpaceOnUse">
<stop stop-color="#FF5050"/>
<stop offset="1" stop-color="#FF7070" stop-opacity="0.84"/>
</linearGradient>
<linearGradient id="paint2_linear_17012_14" x1="7.4375" y1="10.8708" x2="10.8536" y2="10.8819" gradientUnits="userSpaceOnUse">
<stop stop-color="#FF5050"/>
<stop offset="1" stop-color="#FF7070" stop-opacity="0.84"/>
</linearGradient>
<linearGradient id="paint3_linear_17012_14" x1="17.0624" y1="10.6375" x2="20.4785" y2="10.6477" gradientUnits="userSpaceOnUse">
<stop stop-color="#FF5050"/>
<stop offset="1" stop-color="#FF7070" stop-opacity="0.84"/>
</linearGradient>
<linearGradient id="paint4_linear_17012_14" x1="10" y1="11.6667" x2="33.6137" y2="11.7686" gradientUnits="userSpaceOnUse">
<stop stop-color="#FF7070"/>
<stop offset="1" stop-color="#FF7070" stop-opacity="0.65"/>
</linearGradient>
<clipPath id="clip0_17012_14">
<rect width="28" height="28" fill="white" transform="translate(0 6)"/>
</clipPath>
</defs>
</svg>
