<svg width="166" height="44" viewBox="0 0 166 44" fill="none" xmlns="http://www.w3.org/2000/svg">
<path d="M59.366 32.9999C59.146 32.9999 58.959 32.9229 58.805 32.7689C58.651 32.6149 58.574 32.4279 58.574 32.2079V10.7249C58.574 10.4829 58.651 10.2849 58.805 10.1309C58.959 9.9769 59.146 9.8999 59.366 9.8999H68.936C70.718 9.8999 72.17 10.1749 73.292 10.7249C74.414 11.2529 75.239 11.9899 75.767 12.9359C76.317 13.8819 76.592 14.9819 76.592 16.2359C76.592 17.0719 76.438 17.8089 76.13 18.4469C75.844 19.0629 75.481 19.5689 75.041 19.9649C74.623 20.3609 74.205 20.6689 73.787 20.8889C74.645 21.2849 75.404 21.9449 76.064 22.8689C76.724 23.7929 77.054 24.8929 77.054 26.1689C77.054 27.4889 76.757 28.6659 76.163 29.6999C75.569 30.7339 74.689 31.5479 73.523 32.1419C72.357 32.7139 70.916 32.9999 69.2 32.9999H59.366ZM63.161 29.5019H68.672C69.86 29.5019 70.762 29.1829 71.378 28.5449C71.994 27.8849 72.302 27.0929 72.302 26.1689C72.302 25.2009 71.983 24.3979 71.345 23.7599C70.729 23.1219 69.838 22.8029 68.672 22.8029H63.161V29.5019ZM63.161 19.3709H68.342C69.508 19.3709 70.377 19.0959 70.949 18.5459C71.543 17.9739 71.84 17.2369 71.84 16.3349C71.84 15.4109 71.543 14.6959 70.949 14.1899C70.377 13.6619 69.508 13.3979 68.342 13.3979H63.161V19.3709Z" fill="#363853"/>
<path d="M87.17 33.3299C85.828 33.3299 84.662 33.0329 83.672 32.4389C82.704 31.8229 81.956 30.9649 81.428 29.8649C80.9 28.7429 80.636 27.4229 80.636 25.9049V16.6319C80.636 16.4119 80.713 16.2249 80.867 16.0709C81.021 15.9169 81.208 15.8399 81.428 15.8399H84.332C84.574 15.8399 84.761 15.9169 84.893 16.0709C85.047 16.2249 85.124 16.4119 85.124 16.6319V25.7069C85.124 28.4349 86.323 29.7989 88.721 29.7989C89.865 29.7989 90.767 29.4359 91.427 28.7099C92.109 27.9839 92.45 26.9829 92.45 25.7069V16.6319C92.45 16.4119 92.527 16.2249 92.681 16.0709C92.835 15.9169 93.022 15.8399 93.242 15.8399H96.146C96.366 15.8399 96.553 15.9169 96.707 16.0709C96.861 16.2249 96.938 16.4119 96.938 16.6319V32.2079C96.938 32.4279 96.861 32.6149 96.707 32.7689C96.553 32.9229 96.366 32.9999 96.146 32.9999H93.473C93.231 32.9999 93.033 32.9229 92.879 32.7689C92.747 32.6149 92.681 32.4279 92.681 32.2079V30.8549C92.087 31.6249 91.35 32.2299 90.47 32.6699C89.59 33.1099 88.49 33.3299 87.17 33.3299Z" fill="#363853"/>
<path d="M102.089 32.9999C101.869 32.9999 101.682 32.9229 101.528 32.7689C101.374 32.6149 101.297 32.4279 101.297 32.2079V16.6649C101.297 16.4229 101.374 16.2249 101.528 16.0709C101.682 15.9169 101.869 15.8399 102.089 15.8399H104.762C104.982 15.8399 105.169 15.9169 105.323 16.0709C105.499 16.2249 105.587 16.4229 105.587 16.6649V18.0179C106.093 17.3139 106.742 16.7749 107.534 16.4009C108.348 16.0269 109.283 15.8399 110.339 15.8399H111.692C111.934 15.8399 112.121 15.9169 112.253 16.0709C112.407 16.2249 112.484 16.4119 112.484 16.6319V19.0079C112.484 19.2279 112.407 19.4149 112.253 19.5689C112.121 19.7229 111.934 19.7999 111.692 19.7999H109.118C108.062 19.7999 107.237 20.0969 106.643 20.6909C106.071 21.2849 105.785 22.0989 105.785 23.1329V32.2079C105.785 32.4279 105.708 32.6149 105.554 32.7689C105.4 32.9229 105.202 32.9999 104.96 32.9999H102.089Z" fill="#363853"/>
<path d="M122.555 40.2599C120.949 40.2599 119.629 40.0509 118.595 39.6329C117.561 39.2149 116.747 38.7089 116.153 38.1149C115.559 37.5209 115.13 36.9269 114.866 36.3329C114.624 35.7609 114.492 35.3099 114.47 34.9799C114.448 34.7599 114.514 34.5619 114.668 34.3859C114.844 34.2319 115.042 34.1549 115.262 34.1549H118.133C118.353 34.1549 118.529 34.1989 118.661 34.2869C118.793 34.3969 118.903 34.5839 118.991 34.8479C119.123 35.1339 119.299 35.4419 119.519 35.7719C119.739 36.1019 120.069 36.3769 120.509 36.5969C120.971 36.8389 121.598 36.9599 122.39 36.9599C123.226 36.9599 123.93 36.8389 124.502 36.5969C125.074 36.3549 125.503 35.9479 125.789 35.3759C126.097 34.8039 126.251 34.0119 126.251 32.9999V30.7559C125.723 31.3939 125.041 31.9109 124.205 32.3069C123.391 32.7029 122.379 32.9009 121.169 32.9009C119.981 32.9009 118.958 32.7139 118.1 32.3399C117.242 31.9439 116.527 31.4049 115.955 30.7229C115.383 30.0189 114.943 29.1939 114.635 28.2479C114.349 27.3019 114.184 26.2569 114.14 25.1129C114.118 24.5189 114.118 23.9249 114.14 23.3309C114.184 22.2309 114.349 21.2079 114.635 20.2619C114.921 19.3159 115.35 18.4909 115.922 17.7869C116.516 17.0609 117.242 16.4999 118.1 16.1039C118.958 15.7079 119.981 15.5099 121.169 15.5099C122.423 15.5099 123.479 15.7519 124.337 16.2359C125.195 16.6979 125.899 17.2809 126.449 17.9849V16.6649C126.449 16.4229 126.526 16.2249 126.68 16.0709C126.834 15.9169 127.021 15.8399 127.241 15.8399H129.914C130.134 15.8399 130.321 15.9169 130.475 16.0709C130.629 16.2249 130.706 16.4229 130.706 16.6649L130.739 32.5709C130.739 34.1549 130.442 35.5189 129.848 36.6629C129.254 37.8069 128.352 38.6869 127.142 39.3029C125.954 39.9409 124.425 40.2599 122.555 40.2599ZM122.39 29.4029C123.292 29.4029 124.018 29.2049 124.568 28.8089C125.118 28.4129 125.525 27.8959 125.789 27.2579C126.053 26.6199 126.207 25.9709 126.251 25.3109C126.273 25.0249 126.284 24.6619 126.284 24.2219C126.284 23.7819 126.273 23.4299 126.251 23.1659C126.207 22.4839 126.053 21.8349 125.789 21.2189C125.525 20.5809 125.118 20.0639 124.568 19.6679C124.018 19.2499 123.292 19.0409 122.39 19.0409C121.488 19.0409 120.762 19.2499 120.212 19.6679C119.662 20.0639 119.266 20.5919 119.024 21.2519C118.804 21.9119 118.672 22.6379 118.628 23.4299C118.584 23.9579 118.584 24.4969 118.628 25.0469C118.672 25.8169 118.804 26.5429 119.024 27.2249C119.266 27.8849 119.662 28.4129 120.212 28.8089C120.762 29.2049 121.488 29.4029 122.39 29.4029Z" fill="#363853"/>
<path d="M142.527 33.3299C140.085 33.3299 138.149 32.6259 136.719 31.2179C135.289 29.8099 134.519 27.8079 134.409 25.2119C134.387 24.9919 134.376 24.7169 134.376 24.3869C134.376 24.0349 134.387 23.7599 134.409 23.5619C134.497 21.9119 134.871 20.4819 135.531 19.2719C136.213 18.0619 137.148 17.1379 138.336 16.4999C139.524 15.8399 140.921 15.5099 142.527 15.5099C144.309 15.5099 145.805 15.8839 147.015 16.6319C148.225 17.3579 149.138 18.3809 149.754 19.7009C150.37 20.9989 150.678 22.5059 150.678 24.2219V24.9149C150.678 25.1349 150.601 25.3219 150.447 25.4759C150.293 25.6299 150.095 25.7069 149.853 25.7069H138.897C138.897 25.7069 138.897 25.7399 138.897 25.8059C138.897 25.8719 138.897 25.9269 138.897 25.9709C138.919 26.7409 139.062 27.4559 139.326 28.1159C139.612 28.7539 140.019 29.2709 140.547 29.6669C141.097 30.0629 141.746 30.2609 142.494 30.2609C143.11 30.2609 143.627 30.1729 144.045 29.9969C144.463 29.7989 144.804 29.5789 145.068 29.3369C145.332 29.0949 145.519 28.8969 145.629 28.7429C145.827 28.4789 145.981 28.3249 146.091 28.2809C146.223 28.2149 146.41 28.1819 146.652 28.1819H149.49C149.71 28.1819 149.886 28.2479 150.018 28.3799C150.172 28.5119 150.238 28.6769 150.216 28.8749C150.194 29.2269 150.007 29.6559 149.655 30.1619C149.325 30.6679 148.841 31.1629 148.203 31.6469C147.565 32.1309 146.762 32.5379 145.794 32.8679C144.848 33.1759 143.759 33.3299 142.527 33.3299ZM138.897 22.9349H146.19V22.8359C146.19 21.9779 146.047 21.2299 145.761 20.5919C145.475 19.9539 145.057 19.4479 144.507 19.0739C143.957 18.6999 143.297 18.5129 142.527 18.5129C141.757 18.5129 141.097 18.6999 140.547 19.0739C139.997 19.4479 139.579 19.9539 139.293 20.5919C139.029 21.2299 138.897 21.9779 138.897 22.8359V22.9349Z" fill="#363853"/>
<path d="M154.973 32.9999C154.753 32.9999 154.566 32.9229 154.412 32.7689C154.258 32.6149 154.181 32.4279 154.181 32.2079V16.6649C154.181 16.4229 154.258 16.2249 154.412 16.0709C154.566 15.9169 154.753 15.8399 154.973 15.8399H157.646C157.866 15.8399 158.053 15.9169 158.207 16.0709C158.383 16.2249 158.471 16.4229 158.471 16.6649V18.0179C158.977 17.3139 159.626 16.7749 160.418 16.4009C161.232 16.0269 162.167 15.8399 163.223 15.8399H164.576C164.818 15.8399 165.005 15.9169 165.137 16.0709C165.291 16.2249 165.368 16.4119 165.368 16.6319V19.0079C165.368 19.2279 165.291 19.4149 165.137 19.5689C165.005 19.7229 164.818 19.7999 164.576 19.7999H162.002C160.946 19.7999 160.121 20.0969 159.527 20.6909C158.955 21.2849 158.669 22.0989 158.669 23.1329V32.2079C158.669 32.4279 158.592 32.6149 158.438 32.7689C158.284 32.9229 158.086 32.9999 157.844 32.9999H154.973Z" fill="#363853"/>
<g clip-path="url(#clip0_16812_28)">
<path d="M44 20.3359C44 18.6467 42.9108 17.2079 41.3982 16.6825C41.1658 11.4417 39.2092 7.41987 35.573 4.71723C32.2543 2.25065 27.6878 1 22 1C16.3122 1 11.7457 2.25065 8.42703 4.71731C4.79084 7.41987 2.83422 11.4418 2.60176 16.6826C1.08917 17.2079 0 18.6467 0 20.3359C0 21.3257 0.374172 22.2293 0.987852 22.9141C0.374172 23.5988 0 24.5024 0 25.4922C0 27.1918 1.10258 28.6378 2.6296 29.1551C3.18252 35.0454 8.18967 39.6719 14.2656 39.6719H29.7344C35.8103 39.6719 40.8175 35.0454 41.3704 29.1551C42.8974 28.6378 44 27.1918 44 25.4922C44 24.5024 43.6258 23.5988 43.0121 22.9141C43.6258 22.2293 44 21.3257 44 20.3359V20.3359ZM22 3.57812C29.3933 3.57812 38.1513 5.85719 38.8034 16.4688H5.19655C5.84873 5.85719 14.6067 3.57812 22 3.57812ZM3.86719 19.0469H40.1328C40.8436 19.0469 41.4219 19.6251 41.4219 20.3359C41.4219 21.0467 40.8436 21.625 40.1328 21.625H3.86719C3.1564 21.625 2.57812 21.0467 2.57812 20.3359C2.57812 19.6251 3.1564 19.0469 3.86719 19.0469ZM29.7344 37.0938H14.2656C9.68455 37.0938 5.88302 33.7265 5.24958 29.3594H6.44531C7.30709 29.3594 7.57943 29.6525 8.12187 30.2366C8.78857 30.9545 9.70166 31.9375 11.6875 31.9375C13.6874 31.9375 14.5766 30.9444 15.226 30.2193C15.7387 29.6468 15.996 29.3594 16.8438 29.3594C17.6915 29.3594 17.9488 29.6468 18.4615 30.2193C19.1109 30.9444 20.0001 31.9375 22 31.9375C23.9999 31.9375 24.8891 30.9444 25.5385 30.2193C26.0512 29.6468 26.3085 29.3594 27.1562 29.3594C28.004 29.3594 28.2613 29.6468 28.774 30.2193C29.4234 30.9444 30.3126 31.9375 32.3125 31.9375C34.3124 31.9375 35.2016 30.9444 35.851 30.2193C36.3637 29.6468 36.621 29.3594 37.4688 29.3594H38.7504C38.117 33.7265 34.3154 37.0938 29.7344 37.0938ZM40.1328 26.7812H37.4688C35.4689 26.7812 34.5796 27.7743 33.9303 28.4995C33.4176 29.072 33.1603 29.3594 32.3125 29.3594C31.4647 29.3594 31.2074 29.072 30.6947 28.4995C30.0454 27.7743 29.1561 26.7812 27.1562 26.7812C25.1564 26.7812 24.2671 27.7743 23.6178 28.4995C23.1051 29.072 22.8478 29.3594 22 29.3594C21.1522 29.3594 20.8949 29.072 20.3822 28.4995C19.7329 27.7743 18.8436 26.7812 16.8438 26.7812C14.8439 26.7812 13.9546 27.7743 13.3053 28.4995C12.7926 29.072 12.5353 29.3594 11.6875 29.3594C10.8257 29.3594 10.5534 29.0662 10.0109 28.4821C9.34424 27.7643 8.43116 26.7812 6.44531 26.7812H3.86719C3.1564 26.7812 2.57812 26.203 2.57812 25.4922C2.57812 24.7814 3.1564 24.2031 3.86719 24.2031H40.1328C40.8436 24.2031 41.4219 24.7814 41.4219 25.4922C41.4219 26.203 40.8436 26.7812 40.1328 26.7812Z" fill="#FF6838"/>
<path d="M14.2656 13.8906C14.9776 13.8906 15.5547 13.3135 15.5547 12.6016C15.5547 11.8896 14.9776 11.3125 14.2656 11.3125C13.5537 11.3125 12.9766 11.8896 12.9766 12.6016C12.9766 13.3135 13.5537 13.8906 14.2656 13.8906Z" fill="#FF6838" fill-opacity="0.79"/>
<path d="M29.7344 13.8906C30.4463 13.8906 31.0234 13.3135 31.0234 12.6016C31.0234 11.8896 30.4463 11.3125 29.7344 11.3125C29.0224 11.3125 28.4453 11.8896 28.4453 12.6016C28.4453 13.3135 29.0224 13.8906 29.7344 13.8906Z" fill="#FF6838" fill-opacity="0.79"/>
<path d="M24.5781 11.3125C25.2901 11.3125 25.8672 10.7354 25.8672 10.0234C25.8672 9.31151 25.2901 8.73438 24.5781 8.73438C23.8662 8.73438 23.2891 9.31151 23.2891 10.0234C23.2891 10.7354 23.8662 11.3125 24.5781 11.3125Z" fill="#FF6838" fill-opacity="0.79"/>
<path d="M19.4219 8.73438C20.1338 8.73438 20.7109 8.15724 20.7109 7.44531C20.7109 6.73338 20.1338 6.15625 19.4219 6.15625C18.7099 6.15625 18.1328 6.73338 18.1328 7.44531C18.1328 8.15724 18.7099 8.73438 19.4219 8.73438Z" fill="#FF6838" fill-opacity="0.79"/>
</g>
<defs>
<clipPath id="clip0_16812_28">
<rect width="44" height="44" fill="white"/>
</clipPath>
</defs>
</svg>
