<svg width="22" height="22" viewBox="0 0 22 22" fill="none" xmlns="http://www.w3.org/2000/svg">
<path fillRule="evenodd" clipRule="evenodd" d="M11 1.75C5.89137 1.75 1.75 5.89137 1.75 11C1.75 16.1086 5.89137 20.25 11 20.25C16.1086 20.25 20.25 16.1086 20.25 11C20.25 5.89137 16.1086 1.75 11 1.75ZM0.25 11C0.25 5.06294 5.06294 0.25 11 0.25C16.9371 0.25 21.75 5.06294 21.75 11C21.75 16.9371 16.9371 21.75 11 21.75C5.06294 21.75 0.25 16.9371 0.25 11Z" fill="#363853"/>
<path fillRule="evenodd" clipRule="evenodd" d="M6.23123 10.9455C6.23476 10.6372 6.48755 10.3901 6.79586 10.3937L15.2169 10.49C15.5252 10.4936 15.7723 10.7464 15.7688 11.0547C15.7652 11.363 15.5125 11.61 15.2041 11.6065L6.78309 11.5102C6.47478 11.5066 6.2277 11.2538 6.23123 10.9455Z" fill="#363853"/>
</svg>
