<svg width="24" height="22" viewBox="0 0 24 22" fill="none" xmlns="http://www.w3.org/2000/svg">
<path d="M12.362 2.5401V1.58126C12.362 1.41919 12.296 1.26375 12.1785 1.14914C12.061 1.03454 11.9017 0.970154 11.7356 0.970154C11.5695 0.970154 11.4102 1.03454 11.2927 1.14914C11.1753 1.26375 11.1093 1.41919 11.1093 1.58126V2.5456C6.18743 2.87926 2.28654 6.88968 2.28654 11.7752C2.28654 16.8777 6.54226 21.0299 11.7729 21.0299C17.0035 21.0299 21.2592 16.8777 21.2592 11.7752C21.2592 6.86524 17.3192 2.83801 12.362 2.5401V2.5401ZM11.7729 19.8077C7.2328 19.8077 3.53924 16.2039 3.53924 11.7752C3.53924 7.34588 7.2328 3.74246 11.7729 3.74246C16.3129 3.74246 20.0065 7.34588 20.0065 11.7752C20.0065 16.2039 16.3129 19.8077 11.7729 19.8077Z" fill="#363853"/>
<path d="M8.55759 17.3216C6.51288 16.1901 5.24265 14.0644 5.24265 11.7749C5.24265 11.6056 5.10266 11.4693 4.92948 11.4693C4.75629 11.4693 4.6163 11.6056 4.6163 11.7749C4.6163 14.2841 6.00836 16.6133 8.2488 17.8536C8.3211 17.8935 8.40671 17.9038 8.48679 17.8822C8.56687 17.8606 8.63486 17.8088 8.67581 17.7382C8.71676 17.6677 8.72731 17.5842 8.70514 17.506C8.68296 17.4279 8.62989 17.3616 8.55759 17.3216Z" fill="#363853"/>
<path d="M10.2654 18.1598C10.1441 18.129 10.0237 18.0949 9.90432 18.0578C9.82569 18.0348 9.74096 18.0429 9.66837 18.0803C9.59578 18.1176 9.54113 18.1813 9.51617 18.2576C9.49121 18.3339 9.49795 18.4167 9.53493 18.4882C9.57192 18.5597 9.63618 18.6141 9.71391 18.6399C9.84419 18.6808 9.9751 18.7175 10.1088 18.7508C10.1892 18.771 10.2746 18.7593 10.3461 18.7181C10.4176 18.677 10.4695 18.6098 10.4903 18.5314C10.5006 18.4926 10.5029 18.4522 10.4972 18.4125C10.4915 18.3728 10.4778 18.3346 10.4569 18.3001C10.436 18.2656 10.4083 18.2354 10.3755 18.2113C10.3426 18.1873 10.3052 18.1698 10.2654 18.1598Z" fill="#363853"/>
<path d="M19.8549 5.72793C19.9725 5.84235 20.1319 5.90651 20.2979 5.90628C20.464 5.90605 20.6232 5.84146 20.7405 5.72671C20.8578 5.61196 20.9235 5.45645 20.9233 5.2944C20.9231 5.13235 20.8569 4.97702 20.7393 4.86259L19.1129 3.27982C19.0547 3.2231 18.9857 3.17813 18.9096 3.14749C18.8336 3.11685 18.7521 3.10114 18.6699 3.10125C18.5876 3.10136 18.5062 3.1173 18.4302 3.14815C18.3543 3.179 18.2853 3.22416 18.2273 3.28104C18.1101 3.39584 18.0444 3.55133 18.0447 3.71335C18.0449 3.87537 18.111 4.03067 18.2285 4.14515L19.8549 5.72793V5.72793Z" fill="#363853"/>
<path d="M12.3618 11.6612V6.7757C12.3618 6.61362 12.2958 6.45818 12.1783 6.34358C12.0609 6.22897 11.9015 6.16459 11.7354 6.16459C11.5693 6.16459 11.41 6.22897 11.2925 6.34358C11.1751 6.45818 11.1091 6.61362 11.1091 6.7757V11.9252C11.1091 12.0936 11.199 12.254 11.3242 12.3692L13.1572 14.0406C13.2784 14.1518 13.4328 14.2074 13.5872 14.2074C13.6711 14.2075 13.7541 14.1905 13.8309 14.1575C13.9076 14.1244 13.9764 14.0761 14.0329 14.0155C14.2712 13.7699 14.2499 13.3833 13.9984 13.1517L12.3618 11.6612V11.6612Z" fill="#363853"/>
</svg>
