<svg width="20" height="20" viewBox="0 0 20 20" fill="none" xmlns="http://www.w3.org/2000/svg">
<path d="M14.3158 19.8677H5.66205C4.63179 19.8677 3.77759 19.0621 3.71722 18.0336L2.8549 3.30565C2.84437 3.12454 2.90891 2.94716 3.03316 2.81522C3.15764 2.68328 3.33085 2.60864 3.5124 2.60864H16.4652C16.6465 2.60864 16.8197 2.6835 16.9444 2.81522C17.0687 2.94716 17.1332 3.12454 17.1229 3.30565L16.2606 18.0338C16.2002 19.0621 15.346 19.8677 14.3158 19.8677ZM4.21051 3.92561L5.03222 17.9565C5.05153 18.2898 5.32836 18.5506 5.66205 18.5506H14.3158C14.6494 18.5506 14.9258 18.2898 14.9454 17.9567L15.7669 3.92561H4.21051Z" fill="#c8c8c8"/>
<path d="M17.8252 3.92559H2.1524C1.78864 3.92559 1.4938 3.63076 1.4938 3.26699C1.4938 2.90323 1.78864 2.6084 2.1524 2.6084H17.8254C18.1892 2.6084 18.484 2.90323 18.484 3.26699C18.484 3.63076 18.1892 3.92559 17.8252 3.92559Z" fill="#c8c8c8"/>
<path d="M13.0027 3.92554H6.97485C6.61108 3.92554 6.31625 3.63071 6.31625 3.26694V2.03932C6.31625 0.975475 7.18187 0.109863 8.24593 0.109863H11.7319C12.7959 0.109863 13.6613 0.975475 13.6613 2.03932V3.26694C13.6613 3.63071 13.3665 3.92554 13.0027 3.92554ZM7.63344 2.60835H12.3439V2.03932C12.3441 1.70168 12.0695 1.42705 11.7317 1.42705H8.24593C7.90829 1.42705 7.63366 1.70168 7.63366 2.03932L7.63344 2.60835Z" fill="#c8c8c8"/>
<path d="M12.9151 16.5727C12.902 16.5727 12.8892 16.5723 12.8758 16.5716C12.513 16.5503 12.2357 16.2386 12.257 15.8755L12.8001 6.60161C12.8214 6.23829 13.1312 5.95773 13.4962 5.98275C13.8591 6.00405 14.1364 6.31556 14.1151 6.67867L13.572 15.9528C13.5516 16.3027 13.2611 16.5727 12.9151 16.5727Z" fill="#c8c8c8"/>
<path d="M7.06222 16.5726C6.71602 16.5726 6.42601 16.3026 6.40538 15.9527L5.86248 6.67859C5.84118 6.31549 6.11823 6.00397 6.48134 5.98268C6.84268 5.95831 7.15596 6.23843 7.17725 6.60154L7.72015 15.8754C7.74145 16.2385 7.4644 16.5503 7.10129 16.5715C7.08834 16.5722 7.07539 16.5726 7.06222 16.5726Z" fill="#c8c8c8"/>
<path d="M9.98879 16.5728C9.62503 16.5728 9.3302 16.2779 9.3302 15.9142V6.64028C9.3302 6.27652 9.62503 5.98169 9.98879 5.98169C10.3526 5.98169 10.6474 6.27652 10.6474 6.64028V15.9142C10.6474 16.2779 10.3526 16.5728 9.98879 16.5728Z" fill="#c8c8c8"/>
</svg>
